<svg xmlns="http://www.w3.org/2000/svg" class="cel-icon cel-icon-stroke-width" viewBox="0 0 24 24"><path d="M10.3 2.291L4.37 8.218a.248.248 0 01-.176.073H2a2 2 0 00-2 2v3.414a2 2 0 002 2h2.193c.069 0 .132.028.177.074l5.93 5.926a1 1 0 001.7-.704v-18a1 1 0 00-1.7-.709zM17.59 4.966a1 1 0 00-1.414 1.414c1.439 1.438 2.329 3.425 2.329 5.619s-.89 4.182-2.329 5.619a1 1 0 001.414 1.414c1.801-1.8 2.915-4.286 2.915-7.034s-1.114-5.234-2.915-7.033z"/><path d="M20.041 2.434a1 1 0 00-1.414 1.414c2.082 2.088 3.369 4.968 3.369 8.15s-1.287 6.062-3.369 8.15a1 1 0 101.414 1.414c2.443-2.45 3.954-5.83 3.954-9.564s-1.511-7.114-3.955-9.564zM15.141 7.5a.998.998 0 00-1.708.706 1 1 0 00.292.707c.788.792 1.276 1.884 1.276 3.09s-.487 2.298-1.276 3.09a1 1 0 101.414 1.409l.001-.001c1.148-1.154 1.857-2.744 1.857-4.5s-.709-3.346-1.856-4.5z"/></svg>