<svg width="16" height="16" viewBox="0 0 16 16" fill="none" xmlns="http://www.w3.org/2000/svg">
    <g id="close">
        <path id="Shape" fill-rule="evenodd" clip-rule="evenodd"
            d="M1.72085 3.51436C1.39085 3.1957 1.25885 2.72436 1.37485 2.28036C1.49085 1.83636 1.83752 1.49036 2.28085 1.37436C2.72419 1.25836 3.19619 1.39036 3.51485 1.72036L7.77619 5.9817C7.90019 6.10503 8.10019 6.10503 8.22419 5.9817L12.4855 1.72036C12.8042 1.39036 13.2755 1.25836 13.7195 1.37436C14.1635 1.49036 14.5095 1.83703 14.6255 2.28036C14.7415 2.7237 14.6095 3.1957 14.2795 3.51436L10.0182 7.7757C9.89485 7.8997 9.89485 8.0997 10.0182 8.2237L14.2795 12.485C14.6095 12.8037 14.7415 13.275 14.6255 13.719C14.5095 14.163 14.1629 14.509 13.7195 14.625C13.2762 14.741 12.8042 14.609 12.4855 14.279L8.22419 10.0177C8.10019 9.89436 7.90019 9.89436 7.77619 10.0177L3.51485 14.279C3.01685 14.7597 2.22552 14.753 1.73619 14.2637C1.24685 13.7744 1.24019 12.983 1.72085 12.485L5.98219 8.2237C6.10552 8.0997 6.10552 7.8997 5.98219 7.7757L1.72085 3.51436Z"
            fill="#333333" />
    </g>
</svg>