<svg xmlns="http://www.w3.org/2000/svg" class="cel-icon cel-icon-stroke-width" viewBox="0 0 24 24"><path d="M14.677 6.058a.25.25 0 00.073-.177V3.752a1 1 0 00-1.707-.707L7.116 8.972a.248.248 0 01-.176.073H4.75a2 2 0 00-2 2v3.414a2 2 0 001.41 1.911l.014.004a.247.247 0 00.249-.063zM23.707 1.709a.997.997 0 000-1.414 1.005 1.005 0 00-1.414 0l-22 22a.997.997 0 000 1.414c.044.044.092.083.143.119l.003.002a.997.997 0 001.268-.121l6.116-6.116a.25.25 0 01.354 0l4.865 4.866a.998.998 0 001.708-.706V10.77a.25.25 0 01.073-.177z"/></svg>