<!-- Generated by IcoMoon.io -->
<svg version="1.1" xmlns="http://www.w3.org/2000/svg" width="24" height="24" viewBox="0 0 24 24">
<title>refresh</title>
<path d="M13.681 4.936c-0.503-0.125-1.080-0.196-1.673-0.196-2.157 0-4.094 0.944-5.42 2.44l-0.007 0.008c-0.23 0.259-0.564 0.421-0.936 0.421-0.69 0-1.25-0.56-1.25-1.25 0-0.318 0.119-0.609 0.315-0.83l-0.001 0.001c1.793-2.024 4.398-3.294 7.3-3.294 0.797 0 1.572 0.096 2.314 0.277l-0.067-0.014c3.558 0.915 6.328 3.6 7.347 7.037l0.018 0.073c0.031 0.105 0.126 0.18 0.239 0.18 0.011 0 0.022-0.001 0.033-0.002l-0.001 0 1.033-0.13c0.019-0.003 0.041-0.004 0.063-0.004 0.171 0 0.322 0.088 0.41 0.221l0.001 0.002c0.053 0.078 0.085 0.175 0.085 0.278 0 0.091-0.024 0.177-0.067 0.25l0.001-0.002-2.476 4.342c-0.078 0.134-0.213 0.228-0.371 0.248l-0.002 0c-0.009 0.001-0.020 0.001-0.031 0.001s-0.022-0-0.032-0.001l0.001 0c-0.141 0-0.268-0.058-0.359-0.152l-0-0-3.477-3.593c-0.087-0.090-0.141-0.212-0.141-0.348 0-0.255 0.191-0.466 0.438-0.496l0.002-0 1.878-0.232c0.122-0.018 0.215-0.122 0.215-0.248 0-0.031-0.006-0.060-0.016-0.087l0.001 0.002c-0.871-2.421-2.854-4.25-5.315-4.891l-0.054-0.012z"></path>
<path d="M0.594 14.1c-0.052-0.077-0.083-0.173-0.083-0.275 0-0.092 0.025-0.179 0.069-0.253l-0.001 0.002 2.5-4.329c0.079-0.133 0.214-0.226 0.373-0.245l0.002-0c0.019-0.003 0.041-0.004 0.064-0.004 0.141 0 0.268 0.060 0.357 0.155l0 0 3.456 3.614c0.086 0.090 0.139 0.212 0.139 0.346 0 0.255-0.19 0.465-0.436 0.496l-0.002 0-1.848 0.221c-0.078 0.009-0.144 0.053-0.182 0.116l-0.001 0.001c-0.023 0.038-0.037 0.083-0.037 0.132 0 0.030 0.005 0.059 0.015 0.086l-0.001-0.002c0.87 2.421 2.853 4.25 5.316 4.888l0.053 0.012c0.502 0.124 1.078 0.195 1.671 0.195 2.158 0 4.095-0.944 5.422-2.441l0.007-0.008c0.231-0.272 0.573-0.443 0.955-0.443 0.69 0 1.25 0.56 1.25 1.25 0 0.328-0.127 0.627-0.334 0.85l0.001-0.001c-1.793 2.024-4.399 3.293-7.301 3.293-0.798 0-1.573-0.096-2.315-0.277l0.067 0.014c-3.563-0.914-6.336-3.604-7.351-7.047l-0.018-0.073c-0.031-0.105-0.127-0.181-0.241-0.181-0.010 0-0.020 0.001-0.030 0.002l0.001-0-1.058 0.127c-0.009 0.001-0.019 0.001-0.030 0.001s-0.021-0-0.031-0.001l0.001 0c-0.001 0-0.002 0-0.002 0-0.172 0-0.325-0.087-0.414-0.22l-0.001-0.002z"></path>
</svg>
