<svg xmlns="http://www.w3.org/2000/svg" viewBox="0 0 700 330" width="700" height="330"><defs><marker id="ah" markerWidth="10" markerHeight="10" refX="7" refY="3" orient="auto"><path d="M0,0 L7,3 L0,6 Z" fill="#eaf2fb"/></marker><marker id="ahm" markerWidth="10" markerHeight="10" refX="7" refY="3" orient="auto"><path d="M0,0 L7,3 L0,6 Z" fill="#9fb3c8"/></marker></defs><rect x="2" y="2" width="696" height="326" rx="18" fill="#0d1b2e" stroke="#24405f" stroke-width="2"/><text x="350" y="38" font-family="Arial,Helvetica,sans-serif" font-size="24" fill="#eaf2fb" text-anchor="middle" font-weight="bold">Why your muscles burn</text><rect x="24" y="64" width="320" height="248" rx="14" fill="rgba(46,155,87,0.12)" stroke="#2e9b57" stroke-width="2"/><text x="184" y="92" font-family="Arial,Helvetica,sans-serif" font-size="17" fill="#2e9b57" text-anchor="middle" font-weight="bold">WITH enough oxygen</text><ellipse cx="120" cy="168" rx="52" ry="34" fill="#3a2363" stroke="#e7c869" stroke-width="4"/><path d="M 83.6 140.8 q 36.4 17.0 72.8 0" fill="none" stroke="#5aa9ff" stroke-width="3" opacity="0.8"/><path d="M 83.6 154.4 q 36.4 17.0 72.8 0" fill="none" stroke="#5aa9ff" stroke-width="3" opacity="0.8"/><path d="M 83.6 168.0 q 36.4 17.0 72.8 0" fill="none" stroke="#5aa9ff" stroke-width="3" opacity="0.8"/><path d="M 83.6 181.6 q 36.4 17.0 72.8 0" fill="none" stroke="#5aa9ff" stroke-width="3" opacity="0.8"/><path d="M 83.6 195.2 q 36.4 17.0 72.8 0" fill="none" stroke="#5aa9ff" stroke-width="3" opacity="0.8"/><rect x="200" y="128" width="34" height="26" rx="10" fill="#ffd166"/><rect x="234" y="135.8" width="9" height="10.4" rx="3" fill="#ffd166"/><text x="217.0" y="149.0" font-family="Arial,Helvetica,sans-serif" font-size="22" fill="#5a3d00" text-anchor="middle" font-weight="bold"></text><text x="217" y="146" font-family="Arial,Helvetica,sans-serif" font-size="10" fill="#5a3d00" text-anchor="middle" font-weight="bold">ATP</text><rect x="244" y="128" width="34" height="26" rx="10" fill="#ffd166"/><rect x="278" y="135.8" width="9" height="10.4" rx="3" fill="#ffd166"/><text x="261.0" y="149.0" font-family="Arial,Helvetica,sans-serif" font-size="22" fill="#5a3d00" text-anchor="middle" font-weight="bold"></text><text x="261" y="146" font-family="Arial,Helvetica,sans-serif" font-size="10" fill="#5a3d00" text-anchor="middle" font-weight="bold">ATP</text><rect x="288" y="128" width="34" height="26" rx="10" fill="#ffd166"/><rect x="322" y="135.8" width="9" height="10.4" rx="3" fill="#ffd166"/><text x="305.0" y="149.0" font-family="Arial,Helvetica,sans-serif" font-size="22" fill="#5a3d00" text-anchor="middle" font-weight="bold"></text><text x="305" y="146" font-family="Arial,Helvetica,sans-serif" font-size="10" fill="#5a3d00" text-anchor="middle" font-weight="bold">ATP</text><rect x="200" y="180" width="34" height="26" rx="10" fill="#ffd166"/><rect x="234" y="187.8" width="9" height="10.4" rx="3" fill="#ffd166"/><text x="217.0" y="201.0" font-family="Arial,Helvetica,sans-serif" font-size="22" fill="#5a3d00" text-anchor="middle" font-weight="bold"></text><text x="217" y="198" font-family="Arial,Helvetica,sans-serif" font-size="10" fill="#5a3d00" text-anchor="middle" font-weight="bold">ATP</text><rect x="244" y="180" width="34" height="26" rx="10" fill="#ffd166"/><rect x="278" y="187.8" width="9" height="10.4" rx="3" fill="#ffd166"/><text x="261.0" y="201.0" font-family="Arial,Helvetica,sans-serif" font-size="22" fill="#5a3d00" text-anchor="middle" font-weight="bold"></text><text x="261" y="198" font-family="Arial,Helvetica,sans-serif" font-size="10" fill="#5a3d00" text-anchor="middle" font-weight="bold">ATP</text><rect x="288" y="180" width="34" height="26" rx="10" fill="#ffd166"/><rect x="322" y="187.8" width="9" height="10.4" rx="3" fill="#ffd166"/><text x="305.0" y="201.0" font-family="Arial,Helvetica,sans-serif" font-size="22" fill="#5a3d00" text-anchor="middle" font-weight="bold"></text><text x="305" y="198" font-family="Arial,Helvetica,sans-serif" font-size="10" fill="#5a3d00" text-anchor="middle" font-weight="bold">ATP</text><text x="184" y="300" font-family="Arial,Helvetica,sans-serif" font-size="14" fill="#eaf2fb" text-anchor="middle" font-weight="normal">Plenty of energy — you cruise</text><rect x="356" y="64" width="320" height="248" rx="14" fill="rgba(192,57,43,0.12)" stroke="#c0392b" stroke-width="2"/><text x="516" y="92" font-family="Arial,Helvetica,sans-serif" font-size="17" fill="#ff7a6b" text-anchor="middle" font-weight="bold">NOT enough oxygen</text><ellipse cx="452" cy="168" rx="52" ry="34" fill="#3a2363" stroke="#e7c869" stroke-width="4"/><path d="M 415.6 140.8 q 36.4 17.0 72.8 0" fill="none" stroke="#5aa9ff" stroke-width="3" opacity="0.8"/><path d="M 415.6 154.4 q 36.4 17.0 72.8 0" fill="none" stroke="#5aa9ff" stroke-width="3" opacity="0.8"/><path d="M 415.6 168.0 q 36.4 17.0 72.8 0" fill="none" stroke="#5aa9ff" stroke-width="3" opacity="0.8"/><path d="M 415.6 181.6 q 36.4 17.0 72.8 0" fill="none" stroke="#5aa9ff" stroke-width="3" opacity="0.8"/><path d="M 415.6 195.2 q 36.4 17.0 72.8 0" fill="none" stroke="#5aa9ff" stroke-width="3" opacity="0.8"/><text x="452" y="210" font-family="Arial,Helvetica,sans-serif" font-size="12" fill="#ff9a8c" text-anchor="middle" font-weight="normal">stalls</text><rect x="540" y="150" width="34" height="26" rx="10" fill="#ffd166"/><rect x="574" y="157.8" width="9" height="10.4" rx="3" fill="#ffd166"/><text x="557.0" y="171.0" font-family="Arial,Helvetica,sans-serif" font-size="22" fill="#5a3d00" text-anchor="middle" font-weight="bold"></text><text x="557" y="168" font-family="Arial,Helvetica,sans-serif" font-size="10" fill="#5a3d00" text-anchor="middle" font-weight="bold">ATP</text><text x="516" y="250" font-family="Arial,Helvetica,sans-serif" font-size="14" fill="#eaf2fb" text-anchor="middle" font-weight="normal">Backup kicks in → lactic acid</text><text x="516" y="276" font-family="Arial,Helvetica,sans-serif" font-size="15" fill="#ff9a8c" text-anchor="middle" font-weight="bold">→ the BURN, and you gasp</text></svg>