<svg xmlns="http://www.w3.org/2000/svg" viewBox="0 0 340 660" width="340" height="660" font-family="Arial, Helvetica, sans-serif">
  <defs>
    <linearGradient id="screen" x1="0" y1="0" x2="0" y2="1">
      <stop offset="0" stop-color="#10131c"/>
      <stop offset="1" stop-color="#1a1f2e"/>
    </linearGradient>
    <linearGradient id="bezel" x1="0" y1="0" x2="1" y2="1">
      <stop offset="0" stop-color="#3a3f4d"/>
      <stop offset="0.5" stop-color="#15171f"/>
      <stop offset="1" stop-color="#3a3f4d"/>
    </linearGradient>
    <linearGradient id="hdr" x1="0" y1="0" x2="1" y2="0">
      <stop offset="0" stop-color="#E0552B"/>
      <stop offset="1" stop-color="#d9398a"/>
    </linearGradient>
    <linearGradient id="th1" x1="0" y1="0" x2="1" y2="1"><stop offset="0" stop-color="#13a0ad"/><stop offset="1" stop-color="#0E7C86"/></linearGradient>
    <linearGradient id="th2" x1="0" y1="0" x2="1" y2="1"><stop offset="0" stop-color="#5aa9ff"/><stop offset="1" stop-color="#2f6bd0"/></linearGradient>
    <linearGradient id="th3" x1="0" y1="0" x2="1" y2="1"><stop offset="0" stop-color="#ffd166"/><stop offset="1" stop-color="#E0552B"/></linearGradient>
    <linearGradient id="th4" x1="0" y1="0" x2="1" y2="1"><stop offset="0" stop-color="#b06bff"/><stop offset="1" stop-color="#6b58e0"/></linearGradient>
    <linearGradient id="th5" x1="0" y1="0" x2="1" y2="1"><stop offset="0" stop-color="#ff6f9c"/><stop offset="1" stop-color="#d9398a"/></linearGradient>
    <filter id="soft" x="-20%" y="-20%" width="140%" height="140%"><feDropShadow dx="0" dy="2" stdDeviation="4" flood-color="#000" flood-opacity="0.35"/></filter>
    <clipPath id="feedClip"><rect x="20" y="92" width="300" height="520" rx="6"/></clipPath>
  </defs>

  <!-- phone body -->
  <rect x="6" y="6" width="328" height="648" rx="46" fill="url(#bezel)"/>
  <rect x="14" y="14" width="312" height="632" rx="40" fill="url(#screen)"/>

  <!-- scrolling feed of hype ads (behind header) -->
  <g clip-path="url(#feedClip)">
    <g>
      <animateTransform attributeName="transform" type="translate" from="0 0" to="0 -630" dur="15s" repeatCount="indefinite"/>

      <!-- card 1 -->
      <g transform="translate(30,100)" filter="url(#soft)">
        <rect width="280" height="118" rx="12" fill="#222838"/>
        <rect width="60" height="118" rx="12" fill="url(#th1)"/><text x="30" y="68" font-size="26" text-anchor="middle">💪</text>
        <circle cx="84" cy="26" r="11" fill="#41506e"/>
        <text x="104" y="24" fill="#cdd6e6" font-size="12" font-weight="700">@biohack_brad</text>
        <rect x="206" y="16" width="60" height="18" rx="9" fill="#E0552B"><animate attributeName="opacity" values="1;0.4;1" dur="1.1s" repeatCount="indefinite"/></rect>
        <text x="236" y="29" fill="#fff" font-size="10" font-weight="900" text-anchor="middle">SPONSORED</text>
        <text x="84" y="58" fill="#fff" font-size="16" font-weight="800">Boost mitochondria 300%!</text>
        <text x="84" y="80" fill="#9fb0c8" font-size="12">“This ONE trick doctors hate.”</text>
        <text x="84" y="103" fill="#ff6f9c" font-size="11" font-weight="700">♥ 84k   💬 2.1k   ↗ share</text>
      </g>

      <!-- card 2 -->
      <g transform="translate(30,228)" filter="url(#soft)">
        <rect width="280" height="118" rx="12" fill="#222838"/>
        <rect width="60" height="118" rx="12" fill="url(#th2)"/><text x="30" y="68" font-size="26" text-anchor="middle">❄️</text>
        <circle cx="84" cy="26" r="11" fill="#41506e"/>
        <text x="104" y="24" fill="#cdd6e6" font-size="12" font-weight="700">@icequeen.fit</text>
        <rect x="206" y="16" width="60" height="18" rx="9" fill="#5aa9ff"/><text x="236" y="29" fill="#0a1b30" font-size="10" font-weight="900" text-anchor="middle">VIRAL AD</text>
        <text x="84" y="58" fill="#fff" font-size="16" font-weight="800">Cold Plunge = superpowers</text>
        <text x="84" y="80" fill="#9fb0c8" font-size="12">3am ice baths changed my life!!</text>
        <text x="84" y="103" fill="#ff6f9c" font-size="11" font-weight="700">♥ 120k   💬 8.4k   ↗ share</text>
      </g>

      <!-- card 3 -->
      <g transform="translate(30,356)" filter="url(#soft)">
        <rect width="280" height="118" rx="12" fill="#222838"/>
        <rect width="60" height="118" rx="12" fill="url(#th3)"/><text x="30" y="68" font-size="24" text-anchor="middle">💊</text>
        <circle cx="84" cy="26" r="11" fill="#41506e"/>
        <text x="104" y="24" fill="#cdd6e6" font-size="12" font-weight="700">@MitoMax_Official</text>
        <rect x="206" y="16" width="60" height="18" rx="9" fill="#ffd166"><animate attributeName="opacity" values="1;0.4;1" dur="0.8s" repeatCount="indefinite"/></rect>
        <text x="236" y="29" fill="#5a3d00" font-size="10" font-weight="900" text-anchor="middle">BUY NOW</text>
        <text x="84" y="58" fill="#fff" font-size="16" font-weight="800">$80 Mito-Boost™ pills</text>
        <text x="84" y="80" fill="#9fb0c8" font-size="12">Only 3 left! ⏰ 80% OFF today</text>
        <text x="84" y="103" fill="#ffd166" font-size="11" font-weight="700">★★★★★ “miracle!” (paid)</text>
      </g>

      <!-- card 4 -->
      <g transform="translate(30,484)" filter="url(#soft)">
        <rect width="280" height="118" rx="12" fill="#222838"/>
        <rect width="60" height="118" rx="12" fill="url(#th4)"/><text x="30" y="68" font-size="26" text-anchor="middle">🫁</text>
        <circle cx="84" cy="26" r="11" fill="#41506e"/>
        <text x="104" y="24" fill="#cdd6e6" font-size="12" font-weight="700">@breathe.guru</text>
        <rect x="206" y="16" width="60" height="18" rx="9" fill="#b06bff"/><text x="236" y="29" fill="#fff" font-size="10" font-weight="900" text-anchor="middle">#ENERGY</text>
        <text x="84" y="58" fill="#fff" font-size="16" font-weight="800">Secret breathing hack</text>
        <text x="84" y="80" fill="#9fb0c8" font-size="12">Unlock “unlimited” cell energy</text>
        <text x="84" y="103" fill="#ff6f9c" font-size="11" font-weight="700">♥ 56k   💬 990   ↗ share</text>
      </g>

      <!-- card 5 -->
      <g transform="translate(30,612)" filter="url(#soft)">
        <rect width="280" height="118" rx="12" fill="#222838"/>
        <rect width="60" height="118" rx="12" fill="url(#th5)"/><text x="30" y="68" font-size="26" text-anchor="middle">⚡</text>
        <circle cx="84" cy="26" r="11" fill="#41506e"/>
        <text x="104" y="24" fill="#cdd6e6" font-size="12" font-weight="700">@energy.alpha</text>
        <rect x="206" y="16" width="60" height="18" rx="9" fill="#ff6f9c"/><text x="236" y="29" fill="#fff" font-size="10" font-weight="900" text-anchor="middle">SPONSORED</text>
        <text x="84" y="58" fill="#fff" font-size="16" font-weight="800">Feel superhuman in 7 days</text>
        <text x="84" y="80" fill="#9fb0c8" font-size="12">Influencers can’t stop posting!</text>
        <text x="84" y="103" fill="#ff6f9c" font-size="11" font-weight="700">♥ 201k   💬 14k   ↗ share</text>
      </g>

      <!-- duplicate of card 1 for a seamless wrap -->
      <g transform="translate(30,740)" filter="url(#soft)">
        <rect width="280" height="118" rx="12" fill="#222838"/>
        <rect width="60" height="118" rx="12" fill="url(#th1)"/><text x="30" y="68" font-size="26" text-anchor="middle">💪</text>
        <circle cx="84" cy="26" r="11" fill="#41506e"/>
        <text x="104" y="24" fill="#cdd6e6" font-size="12" font-weight="700">@biohack_brad</text>
        <rect x="206" y="16" width="60" height="18" rx="9" fill="#E0552B"/><text x="236" y="29" fill="#fff" font-size="10" font-weight="900" text-anchor="middle">SPONSORED</text>
        <text x="84" y="58" fill="#fff" font-size="16" font-weight="800">Boost mitochondria 300%!</text>
        <text x="84" y="80" fill="#9fb0c8" font-size="12">“This ONE trick doctors hate.”</text>
        <text x="84" y="103" fill="#ff6f9c" font-size="11" font-weight="700">♥ 84k   💬 2.1k   ↗ share</text>
      </g>
    </g>
  </g>

  <!-- header bar (over the feed) -->
  <rect x="14" y="14" width="312" height="78" rx="40" fill="url(#hdr)"/>
  <rect x="14" y="60" width="312" height="32" fill="url(#hdr)"/>
  <circle cx="40" cy="42" r="6" fill="#fff" opacity="0.9"/>
  <text x="56" y="48" fill="#fff" font-size="20" font-weight="800">FitFeed</text>
  <!-- pulsing "bombardment" badge -->
  <circle cx="291" cy="42" r="15" fill="#fff">
    <animate attributeName="r" values="15;19;15" dur="0.9s" repeatCount="indefinite"/>
    <animate attributeName="opacity" values="0.6;0;0.6" dur="0.9s" repeatCount="indefinite"/>
  </circle>
  <circle cx="291" cy="42" r="14" fill="#fff"/>
  <text x="291" y="48" fill="#E0552B" font-size="14" font-weight="900" text-anchor="middle">99+</text>
  <text x="170" y="82" fill="#ffe6da" font-size="12" font-weight="800" text-anchor="middle" letter-spacing="1">“BOOST YOUR MITOCHONDRIA!”</text>

  <!-- notch + home bar -->
  <rect x="132" y="22" width="76" height="16" rx="8" fill="#0a0c12"/>
  <rect x="130" y="632" width="80" height="5" rx="2.5" fill="#555b6b"/>
</svg>
