<svg xmlns="http://www.w3.org/2000/svg" viewBox="0 0 680 320" width="680" height="320"><defs><marker id="ah" markerWidth="10" markerHeight="10" refX="7" refY="3" orient="auto"><path d="M0,0 L7,3 L0,6 Z" fill="#eaf2fb"/></marker><marker id="ahm" markerWidth="10" markerHeight="10" refX="7" refY="3" orient="auto"><path d="M0,0 L7,3 L0,6 Z" fill="#9fb3c8"/></marker></defs><rect x="2" y="2" width="676" height="316" rx="18" fill="#0d1b2e" stroke="#24405f" stroke-width="2"/><text x="340" y="40" font-family="Arial,Helvetica,sans-serif" font-size="24" fill="#eaf2fb" text-anchor="middle" font-weight="bold">How the engine makes energy</text><rect x="36" y="92" width="170" height="46" rx="23" fill="#e7c869"/><text x="121" y="121" font-family="Arial,Helvetica,sans-serif" font-size="17" fill="#2a2310" text-anchor="middle" font-weight="bold">Glucose (fuel)</text><rect x="36" y="150" width="170" height="46" rx="23" fill="#5aa9ff"/><text x="121" y="179" font-family="Arial,Helvetica,sans-serif" font-size="17" fill="#08233f" text-anchor="middle" font-weight="bold">Oxygen</text><line x1="214" y1="115" x2="280" y2="150" stroke="#eaf2fb" stroke-width="3" marker-end="url(#ah)"/><line x1="214" y1="173" x2="280" y2="160" stroke="#eaf2fb" stroke-width="3" marker-end="url(#ah)"/><ellipse cx="360" cy="158" rx="72" ry="46" fill="#3a2363" stroke="#e7c869" stroke-width="4"/><path d="M 309.6 121.19999999999999 q 50.4 23.0 100.8 0" fill="none" stroke="#5aa9ff" stroke-width="3" opacity="0.8"/><path d="M 309.6 139.6 q 50.4 23.0 100.8 0" fill="none" stroke="#5aa9ff" stroke-width="3" opacity="0.8"/><path d="M 309.6 158.0 q 50.4 23.0 100.8 0" fill="none" stroke="#5aa9ff" stroke-width="3" opacity="0.8"/><path d="M 309.6 176.4 q 50.4 23.0 100.8 0" fill="none" stroke="#5aa9ff" stroke-width="3" opacity="0.8"/><path d="M 309.6 194.8 q 50.4 23.0 100.8 0" fill="none" stroke="#5aa9ff" stroke-width="3" opacity="0.8"/><text x="360" y="232" font-family="Arial,Helvetica,sans-serif" font-size="14" fill="#9fb3c8" text-anchor="middle" font-weight="normal">mitochondrion</text><line x1="438" y1="150" x2="498" y2="150" stroke="#eaf2fb" stroke-width="3" marker-end="url(#ah)"/><rect x="508" y="118" width="108" height="66" rx="10" fill="#ffd166"/><rect x="616" y="137.8" width="9" height="26.400000000000002" rx="3" fill="#ffd166"/><text x="562.0" y="159.0" font-family="Arial,Helvetica,sans-serif" font-size="22" fill="#5a3d00" text-anchor="middle" font-weight="bold">ATP</text><text x="562" y="210" font-family="Arial,Helvetica,sans-serif" font-size="13" fill="#9fb3c8" text-anchor="middle" font-weight="normal">energy your cells spend</text><line x1="360" y1="208" x2="360" y2="262" stroke="#9fb3c8" stroke-width="2.5" marker-end="url(#ahm)"/><text x="360" y="292" font-family="Arial,Helvetica,sans-serif" font-size="14" fill="#9fb3c8" text-anchor="middle" font-weight="normal">leftover: water + carbon dioxide (you breathe it out)</text></svg>