<svg xmlns="http://www.w3.org/2000/svg" viewBox="0 0 700 344" width="700" height="344"><defs><marker id="ah" markerWidth="10" markerHeight="10" refX="7" refY="3" orient="auto"><path d="M0,0 L7,3 L0,6 Z" fill="#eaf2fb"/></marker><marker id="ahm" markerWidth="10" markerHeight="10" refX="7" refY="3" orient="auto"><path d="M0,0 L7,3 L0,6 Z" fill="#9fb3c8"/></marker></defs><rect x="2" y="2" width="696" height="340" rx="18" fill="#0d1b2e" stroke="#24405f" stroke-width="2"/><text x="350" y="38" font-family="Arial,Helvetica,sans-serif" font-size="24" fill="#eaf2fb" text-anchor="middle" font-weight="bold">You carry TWO sets of DNA</text><circle cx="180" cy="180" r="92" fill="#1b3a5f" stroke="#5aa9ff" stroke-width="3"/><path d="M 150 150 q 12 -16 24 0 q -12 16 0 32 q -12 -16 -24 0 z" fill="#5aa9ff" opacity="0.85"/><path d="M 180 150 q 12 -16 24 0 q -12 16 0 32 q -12 -16 -24 0 z" fill="#5aa9ff" opacity="0.85"/><path d="M 210 150 q 12 -16 24 0 q -12 16 0 32 q -12 -16 -24 0 z" fill="#5aa9ff" opacity="0.85"/><path d="M 150 190 q 12 -16 24 0 q -12 16 0 32 q -12 -16 -24 0 z" fill="#5aa9ff" opacity="0.85"/><path d="M 180 190 q 12 -16 24 0 q -12 16 0 32 q -12 -16 -24 0 z" fill="#5aa9ff" opacity="0.85"/><path d="M 210 190 q 12 -16 24 0 q -12 16 0 32 q -12 -16 -24 0 z" fill="#5aa9ff" opacity="0.85"/><text x="180" y="300" font-family="Arial,Helvetica,sans-serif" font-size="17" fill="#eaf2fb" text-anchor="middle" font-weight="bold">Nuclear DNA</text><text x="180" y="322" font-family="Arial,Helvetica,sans-serif" font-size="13" fill="#9fb3c8" text-anchor="middle" font-weight="normal">~20,000 genes · from BOTH parents</text><ellipse cx="520" cy="176" rx="78" ry="50" fill="#3a2363" stroke="#e7c869" stroke-width="4"/><path d="M 465.4 136.0 q 54.599999999999994 25.0 109.19999999999999 0" fill="none" stroke="#5aa9ff" stroke-width="3" opacity="0.8"/><path d="M 465.4 156.0 q 54.599999999999994 25.0 109.19999999999999 0" fill="none" stroke="#5aa9ff" stroke-width="3" opacity="0.8"/><path d="M 465.4 176.0 q 54.599999999999994 25.0 109.19999999999999 0" fill="none" stroke="#5aa9ff" stroke-width="3" opacity="0.8"/><path d="M 465.4 196.0 q 54.599999999999994 25.0 109.19999999999999 0" fill="none" stroke="#5aa9ff" stroke-width="3" opacity="0.8"/><path d="M 465.4 216.0 q 54.599999999999994 25.0 109.19999999999999 0" fill="none" stroke="#5aa9ff" stroke-width="3" opacity="0.8"/><circle cx="520" cy="176" r="20" fill="none" stroke="#ffd166" stroke-width="5"/><text x="520" y="300" font-family="Arial,Helvetica,sans-serif" font-size="17" fill="#ffd166" text-anchor="middle" font-weight="bold">mtDNA</text><text x="520" y="322" font-family="Arial,Helvetica,sans-serif" font-size="13" fill="#9fb3c8" text-anchor="middle" font-weight="normal">~37 genes · a tiny circle · from MOM only</text></svg>